<?xml version="1.0" standalone="no"?>
<!DOCTYPE svg PUBLIC "-//W3C//DTD SVG 20010904//EN"
 "http://www.w3.org/TR/2001/REC-SVG-20010904/DTD/svg10.dtd">
<svg version="1.0" xmlns="http://www.w3.org/2000/svg"
 width="512.000000pt" height="512.000000pt" viewBox="0 0 512.000000 512.000000"
 preserveAspectRatio="xMidYMid meet">

<g transform="translate(0.000000,512.000000) scale(0.100000,-0.100000)"
fill="#000000" stroke="none">
<path d="M2970 4377 c-181 -51 -273 -257 -190 -425 58 -114 144 -166 278 -167
l83 -1 94 -64 c82 -57 96 -71 109 -109 9 -25 15 -46 13 -47 -1 -2 -32 8 -69
21 -87 32 -214 55 -299 55 -59 0 -70 -3 -83 -22 -21 -30 -20 -71 2 -97 14 -18
34 -24 111 -31 131 -14 188 -31 376 -111 150 -64 167 -69 189 -57 14 7 78 63
144 125 171 160 185 160 382 18 66 -48 119 -89 118 -90 -2 -2 -66 -19 -143
-39 -84 -22 -158 -47 -185 -64 -162 -100 -141 -365 36 -444 24 -10 100 -26
169 -35 69 -9 125 -20 125 -23 0 -4 -138 -123 -306 -265 -314 -266 -368 -317
-437 -419 l-40 -59 -31 53 c-83 142 -192 295 -262 369 -195 207 -379 320 -696
426 -194 66 -220 67 -246 12 -16 -33 -2 -81 26 -92 10 -4 82 -29 162 -57 198
-67 348 -142 468 -232 170 -128 273 -255 447 -548 l57 -98 -17 -67 c-9 -38
-20 -117 -25 -178 -10 -116 -19 -138 -74 -179 -23 -18 -45 -21 -144 -24 l-117
-4 88 90 c69 71 87 95 87 118 0 66 -58 99 -113 65 -18 -11 -88 -76 -157 -146
l-125 -125 -87 0 c-49 0 -88 3 -88 7 0 4 38 46 85 94 47 47 85 94 85 102 0 54
-55 96 -101 78 -13 -5 -85 -70 -159 -145 l-135 -136 -162 0 c-134 0 -164 3
-177 16 -17 17 -20 33 -8 49 4 6 68 65 142 132 222 199 210 174 210 435 0 106
-5 210 -11 231 -5 20 -25 52 -43 70 -18 17 -174 111 -347 209 -1290 724 -1221
684 -1196 701 30 19 87 44 152 65 37 12 85 17 180 16 154 -1 132 6 519 -164
263 -116 283 -123 345 -123 100 -1 156 29 266 142 104 107 220 188 332 233 43
17 87 39 97 49 43 40 9 122 -51 122 -34 0 -172 -58 -250 -105 -30 -18 -82 -55
-115 -81 l-60 -49 -16 24 c-30 45 -111 115 -169 145 -65 35 -965 373 -993 373
-9 0 -32 -10 -51 -23 -26 -17 -39 -37 -56 -87 -27 -79 -31 -215 -8 -279 11
-32 12 -43 2 -45 -158 -45 -318 -146 -336 -213 -20 -70 -14 -75 447 -334 233
-130 426 -240 429 -243 7 -7 -105 -206 -116 -206 -4 0 -36 12 -72 26 -93 38
-229 64 -339 64 -124 0 -278 -31 -302 -61 -22 -26 -23 -67 -2 -97 18 -27 50
-28 149 -7 135 28 319 13 440 -38 28 -11 51 -21 53 -22 2 -2 -98 -185 -101
-185 -1 0 -31 9 -66 20 -302 95 -614 -73 -705 -379 -20 -69 -21 -208 -1 -286
48 -183 208 -342 391 -389 78 -20 212 -21 287 -1 114 30 227 105 294 196 l38
51 90 -7 c119 -9 138 -13 130 -34 -17 -46 -77 -132 -134 -193 -166 -178 -418
-271 -651 -240 -104 14 -224 54 -307 103 -32 19 -99 75 -148 124 -76 75 -98
105 -138 185 -66 134 -82 199 -82 350 0 103 5 138 24 200 48 156 137 295 243
378 32 26 61 58 65 71 9 35 -9 74 -40 89 -42 20 -76 2 -167 -87 -126 -124
-206 -261 -252 -432 -30 -113 -32 -318 -4 -429 43 -169 117 -302 235 -423 125
-129 276 -216 447 -259 124 -30 304 -30 428 0 97 24 227 81 303 133 123 84
263 249 319 376 l25 56 75 -7 c47 -4 91 -15 117 -29 42 -22 42 -22 662 -22
l620 0 43 23 c24 13 45 22 47 20 1 -2 12 -25 24 -52 32 -73 95 -163 170 -239
181 -188 401 -281 661 -281 150 0 259 24 386 83 107 51 162 89 253 175 122
118 194 238 248 415 23 75 26 104 27 231 0 105 -5 164 -17 213 -95 378 -400
650 -785 701 l-84 11 114 97 c154 131 185 164 219 229 81 161 52 348 -73 472
-77 76 -417 319 -474 339 -61 21 -126 22 -190 3 -27 -8 -51 -11 -55 -7 -4 4
-21 51 -38 104 l-32 97 -175 113 c-108 70 -174 118 -174 128 0 32 -61 139 -97
171 -74 65 -191 92 -283 66z m150 -160 c52 -27 80 -75 80 -137 0 -58 -28 -103
-79 -130 -52 -26 -96 -25 -145 3 -54 30 -78 78 -73 143 4 61 28 96 82 124 52
26 82 25 135 -3z m340 -342 l115 -75 36 -109 37 -109 -49 -48 c-27 -26 -50
-46 -52 -43 -2 2 -23 59 -46 126 -46 130 -48 133 -153 207 -38 26 -68 49 -68
51 0 13 44 75 53 75 7 0 64 -34 127 -75z m-1980 -299 c217 -81 414 -156 437
-166 48 -21 138 -101 159 -142 13 -25 12 -28 -11 -46 -35 -28 -85 -35 -131
-18 -21 7 -156 66 -299 129 -291 129 -341 145 -472 154 l-92 6 -15 39 c-16 38
-22 152 -10 183 4 9 14 15 23 12 9 -2 194 -70 411 -151z m2951 -388 c11 -21
22 -58 25 -81 7 -51 -16 -141 -45 -179 l-20 -25 -198 29 c-192 27 -199 29
-225 58 -21 22 -28 41 -28 70 0 29 7 47 28 70 24 26 49 35 222 78 217 55 201
56 241 -20z m-2710 -664 c74 -42 137 -79 141 -82 4 -4 -53 -113 -126 -242
l-134 -235 -211 -54 c-116 -30 -214 -52 -217 -49 -4 4 406 738 412 738 1 0 62
-34 135 -76z m2637 -130 c515 -106 769 -684 501 -1142 -44 -73 -188 -217 -263
-261 -409 -242 -934 -62 -1113 380 -23 58 -24 67 -14 136 6 41 11 93 11 117 0
120 87 331 183 446 52 61 145 146 151 139 2 -2 12 -32 24 -65 l20 -62 -54 -53
c-58 -57 -113 -151 -138 -238 -20 -70 -21 -209 -1 -286 48 -183 208 -342 391
-389 79 -20 209 -20 288 0 183 47 343 206 391 389 20 77 19 216 -1 286 -57
193 -222 353 -403 390 l-57 12 -33 96 c-19 53 -36 102 -38 109 -7 17 60 16
155 -4z m-183 -381 c71 -213 129 -399 128 -412 -3 -47 -74 -70 -105 -33 -9 9
-70 182 -138 384 l-122 368 33 27 c45 39 63 52 69 53 3 0 63 -174 135 -387z
m-2071 296 c126 -71 126 -71 126 -141 0 -55 -1 -58 -25 -58 -14 0 -107 -20
-207 -45 -99 -25 -182 -44 -185 -42 -3 4 29 62 149 270 21 37 41 67 45 67 3 0
46 -23 97 -51z m-1062 -281 l37 -13 -60 -106 c-58 -103 -61 -107 -104 -118
-69 -17 -75 -34 -75 -191 0 -181 -7 -174 201 -196 85 -9 161 -18 169 -21 22
-7 -42 -59 -120 -97 -60 -29 -73 -31 -170 -31 -97 0 -110 2 -173 32 -82 39
-154 110 -194 190 -26 53 -28 67 -28 168 0 98 3 116 27 167 50 108 156 195
273 225 57 14 163 10 217 -9z m3454 -110 c25 -27 57 -74 72 -106 24 -51 27
-69 27 -167 0 -105 -1 -113 -33 -173 -44 -84 -108 -146 -190 -185 -62 -30 -75
-32 -172 -32 -97 0 -110 2 -173 32 -82 39 -155 111 -193 190 -36 75 -45 201
-20 285 17 59 74 154 91 152 6 -1 42 -95 81 -208 58 -169 76 -212 104 -241 97
-100 269 -80 337 39 43 77 40 106 -28 313 -34 103 -64 194 -67 202 -10 27 118
-52 164 -101z m-2266 -7 l0 -49 -142 -127 c-171 -153 -195 -179 -210 -227 -7
-24 -17 -38 -28 -38 -20 0 -758 77 -817 85 l-43 6 0 48 0 49 598 150 c328 83
607 151 620 151 20 1 22 -4 22 -48z"/>
</g>
</svg>
